<svg width="30" height="31" viewBox="0 0 30 31" fill="none" xmlns="http://www.w3.org/2000/svg">
<path d="M11.7164 7.70835C11.4279 8.57347 12.1731 8.78975 12.5818 8.78975C18.2068 4.31998 22.4135 7.37192 23.9039 10.0153C27.0769 19.7479 17.4856 25.227 13.0145 24.7944C12.6683 25.4288 12.8702 26.1642 13.0145 26.4526C22.9664 27.7502 30.6827 13.6921 24.6971 7.56416C18.7116 1.43626 12.077 6.62696 11.7164 7.70835Z" fill="#0E6DFD"/>
<path d="M21.2358 9.22239C16.8511 8.47262 11.476 14.5813 9.3366 17.5852C7.17313 19.7239 4.42571 22.4912 10.851 22.848C14.7452 23.0643 23.0385 16.9364 21.2358 9.22239Z" fill="#0E6DFD"/>
<path d="M6.81212 6.19485C7.74962 5.40183 13.0089 12.7194 11.6442 14.6294C9.84132 17.1526 8.90422 19.1716 9.04845 19.2437C9.19359 19.3154 9.91591 19.2408 12.2936 16.5757C16.0883 12.3224 17.5581 11.6974 19.361 10.8804C20.2263 16.5757 14.5285 21.1897 12.0045 21.9107C9.98541 22.4875 8.37476 24.2183 7.82189 25.0113C-0.831675 17.8743 3.56694 9.36724 6.81212 6.19485ZM6.88439 12.3228C6.45238 12.616 7.01473 21.1033 7.5338 20.7573C7.58187 18.2341 7.51897 13.015 6.88439 12.3228Z" fill="#0E6DFD"/>
</svg>
