<svg width="30" height="31" viewBox="0 0 30 31" fill="none" xmlns="http://www.w3.org/2000/svg">
<path d="M11.7164 7.70835C11.428 8.57347 12.1731 8.78975 12.5818 8.78975C18.2068 4.31998 22.4135 7.37192 23.9039 10.0153C27.0769 19.7479 17.4856 25.227 13.0145 24.7944C12.6683 25.4288 12.8702 26.1642 13.0145 26.4526C22.9664 27.7502 30.6827 13.6921 24.6971 7.56416C18.7116 1.43626 12.077 6.62696 11.7164 7.70835Z" fill="white"/>
<path d="M21.2358 9.22239C16.8511 8.47262 11.476 14.5813 9.3366 17.5852C7.17313 19.7239 4.42571 22.4912 10.851 22.848C14.7452 23.0643 23.0385 16.9364 21.2358 9.22239Z" fill="white"/>
<path d="M6.81225 6.1941C7.74976 5.40112 13.009 12.7197 11.6443 14.6297C9.8415 17.1528 8.90435 19.1708 9.04858 19.2429C9.19328 19.3149 9.915 19.2422 12.2937 16.5759C16.0884 12.3226 17.5582 11.6977 19.3611 10.8806C20.2263 16.5759 14.5286 21.19 12.0046 21.9109C9.98561 22.4877 8.37496 24.2175 7.82201 25.0105C-0.831603 17.8733 3.56705 9.36617 6.81225 6.1941ZM6.88451 12.322C6.45178 12.6104 7.0147 21.1036 7.53393 20.7576C7.582 18.2343 7.51913 13.0141 6.88451 12.322Z" fill="white"/>
</svg>
